<svg width="1256" height="356" viewBox="0 0 1256 356" fill="none" xmlns="http://www.w3.org/2000/svg">
<mask id="mask0_1233_2" style="mask-type:alpha" maskUnits="userSpaceOnUse" x="0" y="0" width="1256" height="356">
<rect width="1256" height="356" fill="#C4C4C4"/>
</mask>
<g mask="url(#mask0_1233_2)">
<rect width="1256" height="356" fill="white"/>
<path d="M1752.26 657.086C1752.26 686.434 1648.21 701.109 1440.11 701.109C1316.24 701.109 1228.3 687.521 1176.27 660.347C1161.41 652.738 1144.07 633.172 1124.25 601.649C1104.43 570.127 1069.13 532.625 1018.34 489.146C856.075 350.555 753.264 281.26 709.911 281.26C666.557 281.26 550.74 347.566 362.461 480.178C286.902 532.897 237.354 575.833 213.819 608.986C191.523 642.139 172.943 662.792 158.079 670.945C113.486 694.315 41.0237 706 -59.3094 706C-159.642 706 -227.15 701.924 -261.833 693.771C-295.278 685.075 -312 671.216 -312 652.194C-312 632.628 -267.408 603.28 -178.223 564.148C-87.799 524.473 8.19866 472.026 109.77 406.807C355.029 249.193 477.658 155.712 477.658 126.364C477.658 97.0151 376.706 10.0561 174.801 -134.513C96.7642 -189.95 16.2501 -240.223 -66.7415 -285.333C-149.733 -330.986 -191.229 -358.976 -191.229 -369.303C-191.229 -400.825 -110.095 -416.587 52.1718 -416.587C215.677 -416.587 325.301 -403.815 381.041 -378.27C404.576 -367.4 424.395 -345.661 440.498 -313.051C457.839 -280.985 488.187 -247.017 531.541 -211.146C677.705 -91.0338 770.606 -30.9777 810.244 -30.9777C857.313 -30.9777 971.891 -94.8382 1153.98 -222.559C1208.48 -260.06 1248.74 -295.931 1274.75 -330.171C1300.76 -364.411 1318.72 -383.977 1328.63 -388.868C1380.66 -414.956 1458.69 -428 1562.74 -428C1668.03 -428 1734.92 -424.196 1763.41 -416.587C1793.14 -409.521 1808 -396.749 1808 -378.27C1808 -359.792 1750.4 -326.91 1635.2 -279.626C1593.09 -262.234 1521.25 -222.831 1419.67 -161.416C1170.7 -10.8684 1046.21 83.156 1046.21 120.657C1046.21 148.375 1158.93 246.476 1384.37 414.959C1458.69 470.395 1538.59 521.212 1624.06 567.409C1709.53 613.063 1752.26 642.955 1752.26 657.086Z" fill="#F2F2F2"/>
</g>
</svg>
